{"title":"Star Wars Rebels S03E02 The Holocrons of Fate 1080P WEB-DL DD5 1","uid":15937189,"size":917506423,"categoryP":"video","categoryS":"hd___tv_shows","magnet":"?xt=urn:btih:0fe5137430a3c3baf0af511e8c0d6d1cfbc0838d&amp;dn=Star+Wars+Rebels+S03E02+The+Holocrons+of+Fate+1080P+WEB-DL+DD5+1&amp;tr=udp%3A%2F%2Ftracker.leechers-paradise.org%3A6969&amp;tr=udp%3A%2F%2Fzer0day.ch%3A1337&amp;tr=udp%3A%2F%2Fopen.demonii.com%3A1337&amp;tr=udp%3A%2F%2Ftracker.coppersurfer.tk%3A6969&amp;tr=udp%3A%2F%2Fexodus.desync.com%3A6969","seeders":24,"leechers":3,"uploader":"jmanwf","files":1,"time":1475413929,"description":"When Maul takes the crew of the Ghost hostage, Ezra and Kanan must pass a trial in order to recover an ancient Sith artifact to save them.\r\n\r\n\r\nVideo\r\nID : 2\r\nFormat : AVC\r\nFormat/Info : Advanced Video Codec\r\nFormat profile :   \r\nFormat settings, CABAC : Yes\r\nFormat settings, ReFrames : 4 frames\r\nCodec ID : V_MPEG4/ISO/AVC\r\nDuration : 22 min 7 s\r\nBit rate : 5 017 kb/s\r\nWidth : 1 920 pixels\r\nHeight : 1 080 pixels\r\nDisplay aspect ratio : 16:9\r\nFrame rate mode : Constant\r\nFrame rate : 23.976 (23976/1000) FPS\r\nColor space : YUV\r\nChroma subsampling : 4:2:0\r\nBit depth : 8 bits\r\nScan type : Progressive\r\nBits/(Pixel*Frame) : 0.101\r\nStream size : 794 MiB (91%)\r\nLanguage : English\r\nDefault : Yes\r\nForced : No\r\nColor range : Limited\r\nColor primaries : BT.709\r\nTransfer characteristics : BT.709\r\nMatrix coefficients : BT.709\r\n\r\nAudio #1\r\nID : 1\r\nFormat : AAC\r\nFormat/Info : Advanced Audio Codec\r\nFormat profile : LC\r\nCodec ID : A_AAC\r\nDuration : 22 min 7 s\r\nBit rate : 127 kb/s\r\nChannel(s) : 2 channels\r\nChannel positions : Front: L R\r\nSampling rate : 48.0 kHz\r\nFrame rate : 46.875 FPS (1024 spf)\r\nCompression mode : Lossy\r\nStream size : 20.1 MiB (2%)\r\nLanguage : English\r\nDefault : Yes\r\nForced : No\r\n\r\nAudio #2\r\nID : 3\r\nFormat : AC-3\r\nFormat/Info : Audio Coding 3\r\nMode extension : CM (complete main)\r\nFormat settings, Endianness : Big\r\nCodec ID : A_AC3\r\nDuration : 22 min 7 s\r\nBit rate mode : Constant\r\nBit rate : 384 kb/s\r\nChannel(s) : 6 channels\r\nChannel positions : Front: L C R, Side: L R, LFE\r\nSampling rate : 48.0 kHz\r\nFrame rate : 31.250 FPS (1536 spf)\r\nCompression mode : Lossy\r\nStream size : 60.8 MiB (7%)\r\nLanguage : English\r\nDefault : No\r\nForced : No\r\n\r\nText\r\nID : 4\r\nFormat : UTF-8\r\nCodec ID : S_TEXT/UTF8\r\nCodec ID/Info : UTF-8 Plain Text\r\nDuration : 21 min 29 s\r\nBit rate : 80 b/s\r\nCount of elements : 324\r\nStream size : 12.6 KiB (0%)\r\nLanguage : English\r\nDefault : Yes\r\nForced : No","torrent":{"xt":"urn:btih:0fe5137430a3c3baf0af511e8c0d6d1cfbc0838d","amp;dn":"Star+Wars+Rebels+S03E02+The+Holocrons+of+Fate+1080P+WEB-DL+DD5+1","amp;tr":["udp%3A%2F%2Ftracker.leechers-paradise.org%3A6969","udp%3A%2F%2Fzer0day.ch%3A1337","udp%3A%2F%2Fopen.demonii.com%3A1337","udp%3A%2F%2Ftracker.coppersurfer.tk%3A6969","udp%3A%2F%2Fexodus.desync.com%3A6969"],"infoHash":"0fe5137430a3c3baf0af511e8c0d6d1cfbc0838d","infoHashBuffer":{"type":"Buffer","data":[15,229,19,116,48,163,195,186,240,175,81,30,140,13,109,28,251,192,131,141]},"announce":[],"urlList":[]}}